<svg width="32" height="32" viewBox="0 0 32 32" fill="none" xmlns="http://www.w3.org/2000/svg">
<path d="M21.9999 2.66669C18.6862 2.66669 15.9999 5.35297 15.9999 8.66666C15.9999 11.9803 18.6862 14.6666 21.9999 14.6666C25.3136 14.6666 27.9999 11.9803 27.9999 8.66666C27.9999 5.35297 25.3136 2.66669 21.9999 2.66669Z" fill="#00359E"/>
<path d="M16.0423 2.37237C14.374 3.952 13.3333 6.18779 13.3333 8.66666C13.3333 10.2628 13.7648 11.7581 14.5174 13.0424C13.9345 13.2312 13.3125 13.3333 12.6666 13.3333C9.35294 13.3333 6.66667 10.647 6.66667 7.33333C6.66667 4.01964 9.35294 1.33337 12.6666 1.33337C13.9184 1.33337 15.0806 1.7167 16.0423 2.37237Z" fill="#00359E"/>
<path d="M23.6118 21.191C23.6118 22.2461 22.9139 23.1384 21.952 23.4366L22.5705 23.408C23.2465 23.408 23.9037 23.1953 24.4439 22.8005L28.2157 20.0487C29.1571 19.3622 30.4747 19.4534 31.3068 20.2628C32.2311 21.1619 32.2311 22.6183 31.3068 23.5158L28.0705 26.664C27.1994 27.5114 26.0878 28.09 24.8795 28.3254L20.3052 29.2153C19.3982 29.3915 18.463 29.3702 17.5653 29.1515L13.4282 28.1462C12.9333 28.0247 12.4259 27.9639 11.9154 27.9639C11.3734 27.9639 11.1024 27.9639 10.885 27.8863C10.5084 27.7519 10.2121 27.4555 10.0776 27.0789C9.99999 26.8615 9.99999 26.5905 9.99999 26.0485V21.4763C9.99999 21.0952 9.99999 20.9047 10.0489 20.7291C10.0923 20.5735 10.1635 20.4271 10.2592 20.297C10.3672 20.1502 10.5171 20.0326 10.8171 19.7975L12.3978 18.5581C12.3978 18.5581 15.0175 17.3333 16.4647 17.3333C17.0642 17.3333 17.6606 17.4062 18.2429 17.5506L21.8211 18.4401C22.8733 18.7009 23.6118 19.6417 23.6118 20.7206V21.191Z" fill="#00359E"/>
<path fill-rule="evenodd" clip-rule="evenodd" d="M4.63139 17.3333C4.64315 17.3333 4.65491 17.3333 4.66669 17.3333C4.67846 17.3333 4.69023 17.3333 4.70199 17.3333C4.98204 17.3332 5.25487 17.3332 5.48698 17.349C5.74081 17.3664 6.04178 17.407 6.35383 17.5362C7.00724 17.8069 7.52636 18.326 7.79701 18.9794C7.92627 19.2915 7.9669 19.5924 7.98422 19.8463C8.00006 20.0784 8.00003 20.3512 8 20.6313C8 20.643 8 20.6548 8 20.6666L8 27.3685C8.00003 27.6486 8.00006 27.9214 7.98422 28.1535C7.9669 28.4073 7.92627 28.7083 7.79701 29.0203C7.52636 29.6738 7.00724 30.1929 6.35383 30.4635C6.04177 30.5928 5.74081 30.6334 5.48698 30.6507C5.25487 30.6666 4.98205 30.6665 4.70199 30.6665H4.63138C4.35132 30.6665 4.07849 30.6666 3.84639 30.6507C3.59256 30.6334 3.29159 30.5928 2.97954 30.4635C2.32613 30.1929 1.80701 29.6737 1.53636 29.0203C1.4071 28.7083 1.36647 28.4073 1.34915 28.1535C1.33331 27.9214 1.33334 27.6486 1.33337 27.3685L1.33337 20.6666C1.33337 20.6548 1.33337 20.643 1.33337 20.6313C1.33334 20.3512 1.33331 20.0784 1.34915 19.8463C1.36647 19.5924 1.4071 19.2915 1.53636 18.9794C1.80701 18.326 2.32614 17.8069 2.97954 17.5362C3.29159 17.407 3.59256 17.3664 3.84639 17.349C4.0785 17.3332 4.35133 17.3332 4.63139 17.3333Z" fill="#00359E"/>
</svg>
