<svg width="39" height="40" viewBox="0 0 39 40" fill="none" xmlns="http://www.w3.org/2000/svg">
<path d="M12.2155 40C12.2155 40 4.27541 37.2584 3.8147e-06 32.9761C28.4009 30.5399 21.9878 16.1867 21.9878 16.1867C32.0656 26.8752 12.2155 40 12.2155 40Z" fill="#FFFFFF"/>
<path d="M37.8679 24.4325C37.8679 24.4325 35.7302 30.2344 30.7222 34.7092C30.7222 8.24663 17.7124 13.7436 17.7124 13.7436C28.4009 4.88738 37.8679 24.4325 37.8679 24.4325Z" fill="#FFFFFF"/>
<path d="M25.0417 2.44432C25.0417 2.44432 29.8908 4.90199 33.3866 10.6364C14.6586 3.9713 13.7424 15.2705 13.7424 15.2705C9.77236 7.02511 25.0417 2.44432 25.0417 2.44432Z" fill="#FFFFFF"/>
<path d="M5.80235 12.2167C5.80235 12.2167 6.10773 10.079 10.3832 6.71923C8.85621 21.0729 15.2693 19.2406 15.2693 19.2406C9.16159 22.2944 5.80235 12.2167 5.80235 12.2167Z" fill="#FFFFFF"/>
<path d="M13.9696 27.091C13.9696 27.091 12.2155 26.2646 10.0778 23.8216C18.6286 24.4321 18.6286 19.8513 18.6286 19.8513C19.8501 25.0429 13.9696 27.091 13.9696 27.091Z" fill="#FFFFFF"/>
</svg>
