<svg width="32" height="32" viewBox="0 0 32 32" fill="none" xmlns="http://www.w3.org/2000/svg">
<path d="M23.7847 29.3333H8.2153C7.51246 29.3333 6.90607 29.3333 6.40665 29.2925C5.87953 29.2495 5.35523 29.1544 4.85073 28.8973C4.09808 28.5138 3.48616 27.9019 3.10266 27.1493C2.96603 26.8811 2.87516 26.6073 2.81353 26.3305C2.78007 26.1802 2.76334 26.1051 2.77165 26.0042C2.77825 25.9243 2.80867 25.8197 2.84599 25.7488C2.89309 25.6592 2.96009 25.5922 3.09409 25.4582L10.6667 17.8856L12.9914 20.2103C13.1037 20.3227 13.2378 20.4569 13.3656 20.5654C13.5137 20.6911 13.7385 20.8585 14.0487 20.9593C14.4503 21.0898 14.883 21.0898 15.2847 20.9593C15.5949 20.8585 15.8197 20.6911 15.9678 20.5654C16.0956 20.4569 16.2297 20.3227 16.3419 20.2104L21.3334 15.2189V17.3333C21.3334 18.0697 21.9303 18.6666 22.6667 18.6666C23.4031 18.6666 24 18.0697 24 17.3333V12C24 11.2636 23.4031 10.6666 22.6667 10.6666H17.3334C16.597 10.6666 16 11.2636 16 12C16 12.7363 16.597 13.3333 17.3334 13.3333H19.4477L14.6667 18.1143L12.3419 15.7896C12.2297 15.6772 12.0956 15.5431 11.9678 15.4346C11.8197 15.3088 11.5949 15.1414 11.2847 15.0407C10.883 14.9101 10.4503 14.9101 10.0487 15.0407C9.73847 15.1414 9.51368 15.3088 9.36558 15.4346C9.23781 15.543 9.10377 15.6772 8.99153 15.7895L4.4876 20.2934C3.91643 20.8646 3.63085 21.1502 3.38566 21.1695C3.17292 21.1862 2.96501 21.1001 2.82642 20.9378C2.66669 20.7508 2.66669 20.3469 2.66669 19.5392V8.21523C2.66667 7.51239 2.66665 6.90601 2.70745 6.40659C2.75052 5.87946 2.84561 5.35517 3.10266 4.85067C3.48616 4.09802 4.09808 3.4861 4.85073 3.1026C5.35523 2.84554 5.87953 2.75045 6.40665 2.70739C6.90608 2.66658 7.51242 2.6666 8.21527 2.66663H23.7848C24.4876 2.6666 25.094 2.66658 25.5934 2.70739C26.1205 2.75045 26.6448 2.84554 27.1493 3.1026C27.902 3.4861 28.5139 4.09802 28.8974 4.85067C29.1544 5.35517 29.2495 5.87946 29.2926 6.40659C29.3334 6.90601 29.3334 7.51235 29.3334 8.2152V23.7847C29.3334 24.4876 29.3334 25.0939 29.2926 25.5933C29.2495 26.1205 29.1544 26.6447 28.8974 27.1493C28.5139 27.9019 27.902 28.5138 27.1493 28.8973C26.6448 29.1544 26.1205 29.2495 25.5934 29.2925C25.094 29.3333 24.4876 29.3333 23.7847 29.3333Z" fill="#00359E"/>
</svg>
