<svg width="32" height="32" viewBox="0 0 32 32" fill="none" xmlns="http://www.w3.org/2000/svg">
<path fill-rule="evenodd" clip-rule="evenodd" d="M30.2761 20.3905C30.7968 20.9112 30.7968 21.7554 30.2761 22.2761L24.9428 27.6094C24.4221 28.1301 23.5779 28.1301 23.0572 27.6094L20.3905 24.9428C19.8698 24.4221 19.8698 23.5778 20.3905 23.0571C20.9112 22.5364 21.7554 22.5364 22.2761 23.0571L24 24.781L28.3905 20.3905C28.9112 19.8698 29.7554 19.8698 30.2761 20.3905Z" fill="#00359E"/>
<path fill-rule="evenodd" clip-rule="evenodd" d="M9.04798 19.3333C11.02 19.3337 12.9921 19.334 14.9642 19.3333C15.123 19.3332 15.3127 19.3332 15.4797 19.3468C15.6734 19.3626 15.9507 19.4032 16.2413 19.5513C16.6176 19.743 16.9236 20.049 17.1153 20.4253C17.2634 20.7159 17.304 20.9932 17.3198 21.1868C17.3334 21.3539 17.3334 21.5436 17.3333 21.7025C17.3327 23.4563 17.3327 25.2102 17.3333 26.9641C17.3334 27.123 17.3334 27.3126 17.3198 27.4797C17.304 27.6734 17.2634 27.9507 17.1153 28.2413C16.9236 28.6176 16.6176 28.9236 16.2413 29.1153C15.9507 29.2634 15.6734 29.304 15.4797 29.3198C15.3127 29.3334 15.123 29.3334 14.9642 29.3333C11.1276 29.3319 7.29045 29.3129 3.45399 29.3334C3.35884 29.3339 3.16757 29.3349 2.98601 29.3029C2.15798 29.1569 1.50969 28.5086 1.36369 27.6806C1.33168 27.499 1.33269 27.3078 1.3332 27.2126C1.33739 26.4247 1.29715 25.6217 1.43459 24.8423C1.92126 22.0822 4.08224 19.9213 6.84231 19.4346C7.41886 19.3329 8.07908 19.3331 9.04798 19.3333Z" fill="#00359E"/>
<path fill-rule="evenodd" clip-rule="evenodd" d="M5.99997 9.99996C5.99997 5.94987 9.28322 2.66663 13.3333 2.66663C17.3834 2.66663 20.6666 5.94987 20.6666 9.99996C20.6666 14.05 17.3834 17.3333 13.3333 17.3333C9.28322 17.3333 5.99997 14.05 5.99997 9.99996Z" fill="#00359E"/>
</svg>
